<svg width="68" height="55" fill="none" xmlns="http://www.w3.org/2000/svg"><path d="M63.01 3.6V1.2h2.13l-2.13 2.4ZM13.11 13c.1.1 2.43-2.4 6.18-4.9 3.45-2.3 8.72-4.9 14.6-4.9 5.9 0 11.27 2.7 14.72 5 3.75 2.4 6.09 4.8 6.19 4.9l-2.54 3c-4.56.6-7.81 3.9-12.27 3.2-2.24-.4-2.34-1.6-2.95-2.9-.5-1-1.32-.8-2.33-1.2-.91-.4-1.52-1.1-3.45-.7-1.62.4-1.83 2.9-3.96 2.8-1.11-.1-1.21-1.6-2.84-3.6-4.16-4.9-7.95-4.29-10.59.21L13.1 13ZM4.57 1.2v1.9L2.96 1.2h1.62Zm54.68 0h3.25v3L59.26 8V1.2ZM55.1 12.6V1.2h3.55v7.4l-3.55 4Zm-.5-10.4v9.9a26.33 26.33 0 0 0-3.66-3l3.65-6.9Zm-4.17-.3v6.8c-.5-.3-.9-.7-1.52-1-.7-.4-1.42-.9-2.23-1.3l3.75-4.5Zm-4.46-.2V6c-1.01-.5-2.13-1-3.14-1.5l3.14-2.8Zm.61-.5h3.75l-3.75 4.6V1.2Zm4.36 0h3.65l-3.65 7.1V1.2Zm-8.93 0h3.96l-3.55 3.1c-.1 0-.2-.1-.3-.1l-.1-3Zm-.5.4V4c-1.02-.4-2.03-.7-3.15-.9l3.15-1.5Zm-4.26 0v1.3L35 2.6l2.24-1Zm-6.9 0 2.23 1c-.81 0-1.52.1-2.23.3V1.6Zm-4.16 0 3.14 1.5c-1.11.2-2.13.5-3.14.9V1.6Zm3.65 1.2L26.5 1.2h3.35v1.6Zm3.55-.4-2.84-1.3h2.84v1.3Zm.71-1.2h2.94L34.1 2.5V1.2Zm3.76 0h3.24l-3.24 1.6V1.2ZM25.28 4.3l-3.56-3.1h3.96v3l-.4.1Zm-3.66-2.6 3.15 2.7c-1.12.4-2.13.9-3.15 1.5V1.7Zm-4.36.2 3.65 4.5a22.9 22.9 0 0 0-3.65 2.4V1.9ZM13 2.2l3.65 7c-1.32 1-2.53 2-3.65 3.2V2.2Zm3.75 6L13.1 1.1h3.65v7.1Zm4.37-2.5-3.76-4.6h3.76v4.6ZM8.33 7.5 5.1 3.7V1.2h3.24v6.3Zm.61-6.3h3.55v11.2L8.94 8.2v-7ZM.52 0v14.6L34 54.5 67.48 15V0H.52Z" fill="#491213"/></svg>