<svg width="31" height="26" fill="none" xmlns="http://www.w3.org/2000/svg"><path d="M24.28 19.6c-3.45-2-2.64-3.5.2-4.9 1.52-.7 4.87-3.4 6.19-2.5l-6.4 7.4Zm-2.34 2.5c-2.03-.1-4.36-.4-6.39.1 1.22.3 4.26 1.2 1.42 1.9 1.02 1.4 2.64 1.3 3.65.1-.4-.2-.7-.5-1.01-.7 1.11-.3 2.13-.9 2.33-1.4Zm1.22-1.6c-.91-.8-1.93-.8-2.74 0-1.22-2.1-5.48-1.4-7.5-1.7 1.1 2.6 9.73 3.1 10.24 1.7Zm-6.9-2.2c-1.62-.5-6.9-.4-3.45-1.8 1.12-.4 6.8.1 3.45 1.8Zm2.03-3c-.5-1.1.4-2.4 1.72-1.4 1.22.8-.6 2-1.72 1.4Zm-2.94.1c-2.34.7-5.38-.8-1.63-1.5 2.34-.5 4.77.5 1.63 1.5.1 0-.1 0 0 0ZM12.7 9.2c-.5 1.6-1.52 1.9-1.42 0 .1-2.3 1.62-1.7 3.25-2.6 1.32-.7 2.03-3.4 4.36-1.8 1.01.7 2.23.1 2.53 1.2 0-.1-2.94 6.7-1.31 6.7-3.25 0-1.83-3.8-.61-6.4-1.22.6-3.15 4.3-1.52 5-.82 1.1-3.45 2.6-4.77 1.5-1.12-1-.51-2.3-.51-3.6ZM8.65 12c-5.68 0-1.82-8.6.1-8.1 2.24.7 1.93 8.2-.1 8.1ZM2.36 3.8C-.28 3.7.84 1.2 2.66.7 4.4.2 7.95 1.8 9.17 2.9c-1.83.6-4.16.5-6.19.6-.2-2-.7-1.3-.6.3Z" fill="#DC6243"/></svg>