<svg width="66" height="37" fill="none" xmlns="http://www.w3.org/2000/svg"><path d="M14.84 12.9c.3.4.6.8.5 1.4 0 .4-.6 1-.2 1.2l1.53-1.8c-.4-.1-3.55-3.8-3.55-4.2l-2.13 1.1c.1.4.8 0 1.21 0 .51 0 .92.4 1.32.7-1.11.9-3.85 3.3-4.16 3.3-.1 0-.7-.4-.7 0 0 .2.6.7.7.8l1.42 1.7c.4-.2-.1-.5.1-.8.1-.2 3.25-2.7 3.96-3.4ZM11.4 8.4c.3-.1.4.3.61 0l-1.62-1.9c-.2-.3-.51-.6-.51 0 .1.4-4.06 3.7-4.26 3.8-.3.1-.5-.3-.71.1l1.42 1.7c.2.2.3.4.5.6.2.2.1-.4.1-.4-.1-.3.31-.6.62-.8 1.01-1 3.55-3.1 3.85-3.1Zm-5.78-.6c-1.12.3-2.44-.1-2.74-1.3-.4-1.2.4-2.4 1.32-3.1.91-.7 2.33-.6 2.84.5.2.5.1 1.1-.1 1.6-.1.3-.4.6 0 .8.6-.7 1.11-1.4 1.72-2.1-.7-.4-1.01-1.1-1.52-1.7-.6-.7-1.32-1.4-2.33-1.5C2.87.7 1.14 2.7.94 4.4c-.1.9.2 1.8.81 2.6.51.6 1.22 1.1 1.63 1.8.2.1 1.82-.7 2.13-.8.2 0 .1-.1.1-.2 0 0-.5.2 0 0Zm25.87 23.6c-.71-.5-2.64-3-3.05-3.5l-.2-.3-.2.1c-.1.1.1.4 0 .6-.5.8-3.75 3.2-3.96 3.4-.4.2-.8-.1-1.01.2.5.6 1.82 2.3 2.03 2.3.3 0 .1-.5.1-.6.1-.2 1.72-1.6 2.33-2.1.2-.2.4.3.61.5.2.3.3.7.2 1-.1.2-.5.6-.2.8.4-.5 1.52-1.8 1.73-2 .2-.2-.41 0-.3-.1-.21.1-.52.2-.72 0-.1 0-.7-.7-.6-.8.3-.2.6-.6 1-.7.62-.1 1.02 1 1.12 1.4.1.4.1.8-.1 1.1-.1.3-.3.5 0 .6l1.42-1.9c0 .1-.1.1-.2 0 .1.1-.1 0 0 0Zm-9.34-8.9c-.7 0-1.42.3-2.02.8a3.52 3.52 0 0 0-.51 4.8c1.32 1.7 3.45 1.9 5.17.7a3.52 3.52 0 0 0 .51-4.8 4.1 4.1 0 0 0-3.14-1.5Zm1.22 1.4c.92-.1 1.52.8 1.12 1.8-.4 1-1.42 2-2.44 2.4-1.21.5-2.03-.5-1.52-1.7.4-1 1.42-2 2.44-2.4.1 0 .2-.1.4-.1Zm-2.84-4.6c.3 0 .61.4.81 0l-1.42-1.7c-.4.2 0 .4-.1.6-.2.3-1.72.5-2.13.6.1-.4.61-1.7.81-1.8.4-.3.61.3.81-.1l-1.82-2.1c-.2-.2-.4-.7-.61-.4 0 0 0 1-.1 1.1-.1.2-.61 2.4-1.22 2.9-.3.3-1.52 1.3-1.83 1.4-.3.1-.5-.4-.8 0l1.62 1.9c.1.1.4.6.5.6.3.1 0-.6.1-.7.1-.3 1.63-1.8 2.34-1.9.91-.2 2.03-.5 3.04-.4.2 0-.2 0 0 0ZM45.07 26c.1.4.2.9.1 1.3-.1.6-.6 1.9-1.42 1.5-.8-.4-1.42-1.1-2.13-1.7.51-.6 1.02-1.1 1.93-.8.2.1.4 0 .2-.2-.3-.2-2.03-1.3-2.13-1.2-.2.2.3.6.1 1-.1.3-.4.5-.6.8-.51-.4-1.22-.8-.71-1.5.4-.4.8-.8 1.42-.9.4-.1 1.21.3 1.32-.1-.72-.3-1.43-.7-2.14-1 .1.5-2.23 2.9-2.73 3.5-.1.1-.41.4-.41.5 0 .3.4.1.4.1.31-.1 4.47 3.3 4.57 3.6.1.2-.1.4 0 .5 0 0 .1.1.2.1.3-.3 2.95-3.9 3.55-4l-1.52-2.4c-.4.2-.1.7 0 .9Zm-4.06 4.4c-1.31-.9-3.65.8-4.05 1-.71.3-1.22-.4-.81-1 .3-.5.9-.8 1.52-.8.2 0 .91.1.91 0 .1-.1.1-.1 0-.2-.6-.4-1.12-.8-1.72-1.1-.1.7-.92 1.1-1.32 1.6-.51.6-1.02 1.3-1.02 2s.4 1.4 1.12 1.7c.7.4 1.52.1 2.23-.3.4-.3.81-.6 1.22-.8.6-.3 1.52 0 1.32.8-.2.7-.92 1.3-1.63 1.5-.4.1-.8.1-1.21-.1-.3-.1-.61-.5-.82-.1l2.34 1.6c.1-.5.3-.7.7-1 .51-.4.92-.9 1.33-1.4.8-.9 1.11-2.5-.1-3.4ZM58.87 2.3c0 .1 0 .1 0 0l-.91 1-.81 1c-.2.2-.3.3 0 .5.5-.3 3.55 4.8 3.34 5.5-.5.2-4.56-3.3-4.66-3.5 0-.1.2-.7-.1-.6-.1 0-.51.6-.61.7l-.61.7c.2.3.3 0 .6 0 .2.1 1.22.9 1.53 1.1-.51 0-1.73.1-1.93.1-.6.1-.3-.4-.71-.6L52.48 10l-.91 1v.1c.2.2.1.1.4 0 .3-.1 4.36 3.2 4.46 3.4.2.3-.1.6.3.8l1.23-1.4c.1-.1.1-.1 0-.1-.3-.2-.3.1-.71.1-.3-.1-2.95-2.2-3.86-3l5.38-.2c.2 0 .7.6.7.8-.1.2-.3.4 0 .5.31-.4.62-.7.92-1.1l.1-.2c.1 0 .1-.1.1-.2l.1-.1c.31-.3 1.22-1.3 1.12-1.4-.3-.3-.4.3-.81 0-.2-.2-.81-1.2-.91-1.4-.2-.3.4-.6.6-.7.51-.3 2.14-.8 2.34.2 0 .2-.2.4-.1.5 0 0 .1.2.2.1l2.13-2.6-.2-.2c-.5.5-5.58-1.5-5.89-1.8-.1-.2-.1-.8-.3-.8Zm-.2 2.6c.8.3 1.52.6 2.33 1l-.6.3c-.21.1-.41.3-.62.5l-1.11-1.8Zm-6.7 7.7a3.7 3.7 0 0 0-3.04 1.3c-1.22 1.5-1.12 3.7.4 4.9 1.53 1.2 3.76.9 4.97-.5 1.22-1.5 1.12-3.7-.4-4.9-.5-.4-1.22-.7-1.93-.8Zm-1.42 1.6c.61 0 1.32.4 1.73.7.8.5 2.23 1.7 1.52 2.7 0-.1.1-.1-.1.1-.82.8-2.24.1-2.95-.5-.7-.5-2.03-1.7-1.21-2.7.3-.2.6-.3 1.01-.3Zm-3.14 4.3a4 4 0 0 0-3.35 1.6c-.61.8-1.32 1.5-1.93 2.3.2.3.5-.1.81.1.3.2 4.16 3.3 4.16 3.5.1.3-.2.4.1.6.1.1 2.95-3.4 3.25-4 .4-1.1.1-2.4-.81-3.2.1.1.2.1 0 0-.81-.6-1.52-.9-2.23-.9Zm-1.12 1.6h.3c1.42.4 3.45 2.1 2.13 3.6l-.4.4c-.2.2-4.26-3-4.06-3.2.4-.5 1.32-.9 2.03-.8Z" fill="#fff"/></svg>